<?xml version="1.0" encoding="UTF-8" standalone="no"?>
<svg
   xmlns:dc="http://purl.org/dc/elements/1.1/"
   xmlns:cc="http://creativecommons.org/ns#"
   xmlns:rdf="http://www.w3.org/1999/02/22-rdf-syntax-ns#"
   xmlns:svg="http://www.w3.org/2000/svg"
   xmlns="http://www.w3.org/2000/svg"
   xmlns:sodipodi="http://sodipodi.sourceforge.net/DTD/sodipodi-0.dtd"
   xmlns:inkscape="http://www.inkscape.org/namespaces/inkscape"
   width="126.865"
   height="129.23801"
   version="1.1"
   viewBox="23.012 176.38 126.865 129.23801"
   id="svg845"
   sodipodi:docname="carpentries-padded.svg"
   inkscape:version="1.0.2 (e86c8708, 2021-01-15)">
  <defs
     id="defs849" />
  <sodipodi:namedview
     pagecolor="#ffffff"
     bordercolor="#666666"
     borderopacity="1"
     objecttolerance="10"
     gridtolerance="10"
     guidetolerance="10"
     inkscape:pageopacity="0"
     inkscape:pageshadow="2"
     inkscape:window-width="1440"
     inkscape:window-height="847"
     id="namedview847"
     showgrid="false"
     inkscape:zoom="3.7058621"
     inkscape:cx="34.740602"
     inkscape:cy="54.529802"
     inkscape:window-x="0"
     inkscape:window-y="25"
     inkscape:window-maximized="1"
     inkscape:current-layer="svg845" />
  <metadata
     id="metadata833">
    <rdf:RDF>
      <cc:Work
         rdf:about="">
        <dc:format>image/svg+xml</dc:format>
        <dc:type
           rdf:resource="http://purl.org/dc/dcmitype/StillImage" />
        <dc:title></dc:title>
      </cc:Work>
    </rdf:RDF>
  </metadata>
  <circle
     style="fill:#ffffff;fill-opacity:1;stroke-width:4.53543;stroke-linejoin:round"
     id="path851"
     cx="86.444496"
     cy="240.99901"
     r="53.698708" />
  <g
     fill="#071159"
     fill-rule="evenodd"
     id="g843"
     transform="translate(25.000499,25.002003)">
    <path
       d="m 60.409,220.14 -0.609,-15.622 13.481,-8.4941 13.613,7.2951 0.692,16.043 -13.481,8.4935 z"
       id="path835" />
    <path
       d="m 33.663,217.11 -0.0823,-22.45 29.291,-18.281 14.009,8.3629 c -10.103,6.5645 -14.746,9.3309 -24.988,15.699 l -0.1926,5.9751 z"
       id="path837" />
    <path
       d="m 35.055,248.41 -12.043,-19.081 28.786,-16.845 1.1557,12.335 10.793,5.589 z"
       id="path839" />
    <path
       d="m 50.128,245.26 19.919,10.355 29.829,-18.249 -1.8935,-15.642 c -10.338,6.1835 -14.348,8.7856 -24.688,14.966 l -5.3995,-2.5663 z"
       id="path841" />
  </g>
</svg>
